<svg xmlns="http://www.w3.org/2000/svg" viewBox="0 0 15.83 15.83"><defs><style>.cls-1{fill:#f9fafb;}</style></defs><title>exit</title><g id="Layer_2" data-name="Layer 2"><g id="Option_0201" data-name="Option 0201"><path class="cls-1" d="M15.28.55h0a1.87,1.87,0,0,0-2.65,0L7.92,5.27,3.19.55A1.87,1.87,0,0,0,.55.55h0a1.87,1.87,0,0,0,0,2.65L5.27,7.92.55,12.64a1.87,1.87,0,0,0,0,2.65h0a1.87,1.87,0,0,0,2.65,0l4.72-4.72,4.72,4.72a1.87,1.87,0,0,0,2.65,0h0a1.87,1.87,0,0,0,0-2.65L10.56,7.92l4.72-4.72A1.87,1.87,0,0,0,15.28.55Z"/></g></g></svg>