<svg xmlns="http://www.w3.org/2000/svg" viewBox="0 0 117.06 177.47"><defs><style>.cls-1{fill:#fff;}</style></defs><title>logo04</title><g id="Layer_2" data-name="Layer 2"><g id="Layer_1-2" data-name="Layer 1"><path class="cls-1" d="M53.81.36A60,60,0,0,0,38.24,6.88a16.3,16.3,0,0,1-2.58,1.41c-.62,0-2.65,1.38-4.25,2.86-1.07,1-1.83,1.52-2.18,1.51-1.34,0-7.16,4.5-9.41,7.32a8,8,0,0,1-1.72,1.76,1.43,1.43,0,0,0-.64.87,8.21,8.21,0,0,1-1.14,1.94C14.2,27.31,12,31,8,38.79c-1.29,2.47-2.65,6.67-4.36,13.47-.39,1.54-1.14,4.33-1.68,6.22A33.62,33.62,0,0,0,.17,69,91.89,91.89,0,0,0,.32,82.57a73.24,73.24,0,0,0,1.49,7.65,12.61,12.61,0,0,1,.44,1.91,68,68,0,0,0,3.47,12.06c.45,1.13,1.26,3.34,1.8,5,1,3.07,3.32,8.1,4,8.75.21.2.56.61.8.9a9.53,9.53,0,0,0,.94,1l.52.46-.12-2.13a19.61,19.61,0,0,0-.4-3.15c-.16-.56-.39-1.62-.53-2.36s-.46-2.25-.74-3.38-.68-3-.9-4.16-.64-3.31-.92-4.72a24.62,24.62,0,0,1-.49-3.8c0-.66-.07-2.35-.19-3.75-.21-2.5,0-5.22.7-10.61.13-.93.34-2.57.49-3.69a26.55,26.55,0,0,1,.62-3.24c.2-.67.49-2,.64-2.9a90.09,90.09,0,0,1,3.42-13.27c.26-.73.74-2.14,1.07-3.12,2.05-6.1,3.07-8.94,3.89-10.86,1.19-2.78,4.49-9.55,4.73-9.73a.32.32,0,0,0,.12-.35c-.13-.47,2.63-3.8,5-6.07a36.45,36.45,0,0,1,8.82-6.53c1.24-.61,2.62-1.32,3.06-1.58a104.31,104.31,0,0,1,11.15-5.07c1.61-.56,2-.61,4.72-.56,8.92.18,18.07,1.6,21.38,3.32a43,43,0,0,1,4.65,3,22.82,22.82,0,0,0,2.3,1.5,25,25,0,0,1,2.5,1.65,5.43,5.43,0,0,0,3.6,1.41c1.36.16,1.57.13,2-.29a1.63,1.63,0,0,0,.5-.94,17.48,17.48,0,0,0-2.14-5,2.71,2.71,0,0,1-.66-.84,2.16,2.16,0,0,0-.58-.75,2.1,2.1,0,0,1-.56-.84,35.59,35.59,0,0,0-4.69-5.25,4.47,4.47,0,0,1-1-.85,7.41,7.41,0,0,0-2-1.71,10.19,10.19,0,0,1-1.39-1.08c-.66-.61-.77-.81-.52-1s.22-.21.09-.22c-.69-.07-1.07-.27-2.31-1.23A10.11,10.11,0,0,0,77,4.83a4.77,4.77,0,0,1-1.12-.52,11.21,11.21,0,0,0-3.33-1.45,3.41,3.41,0,0,1-1.4-.61,2,2,0,0,0-1.09-.45,7.75,7.75,0,0,1-1.67-.36A24.09,24.09,0,0,0,65.16.81L61.38.27a22.48,22.48,0,0,0-7.58.09Z"/><path class="cls-1" d="M44.05,40.51a2.71,2.71,0,0,1-1.1.29,3.5,3.5,0,0,0-2.49,1,2.51,2.51,0,0,1-.92.61c-.13,0-.43.43-.67.94a3.34,3.34,0,0,1-.74,1.12.68.68,0,0,0-.31.48.53.53,0,0,1-.34.42.5.5,0,0,0-.34.36,2.85,2.85,0,0,1-.55,1c-.56.73-.78,1.49-1.1,3.95-.2,1.48,0,3.74.36,4.13A2.05,2.05,0,0,1,36,55.85c0,.65.08.87.43,1s.44.28.44.46.43.52.94.76a4.44,4.44,0,0,1,1.24.82,1.13,1.13,0,0,0,.72.38.39.39,0,0,1,.42.43c0,1,2,1.52,3.77.94a5.66,5.66,0,0,0,2.66-2.41,5.23,5.23,0,0,1,.6-1.11A8,8,0,0,0,48,55.66c.18-.47.67-1.54,1.08-2.39.81-1.64,1-2.91.53-3.22-.24-.15-.24-.27,0-.72.37-.67.56-2.21.27-2.21s-.15-.18,0-.49c.21-.52.22-.49-2.09-3.29-.43-.52-.85-1-.92-1.14s-.55-.56-1.08-1c-.95-.87-1.35-1-1.74-.64Z"/><path class="cls-1" d="M70.4,49.93a23.28,23.28,0,0,0-2,3.34,28.8,28.8,0,0,1-2,3.35,36.36,36.36,0,0,0-2.21,3.7C63.26,62,62.32,63.65,62.11,64a12.14,12.14,0,0,0-.92,1.83,3.22,3.22,0,0,1-.73,1.27.23.23,0,0,0-.21.24,16.58,16.58,0,0,1-1.65,2.39,22.85,22.85,0,0,0-3.54,6c-.31.77-1.06,2.4-1.67,3.62-3.7,7.46-5.73,11.72-6,12.68-.19.6-.95,2.38-1.69,4a46.2,46.2,0,0,0-3.38,9.68,21.18,21.18,0,0,0-.69,6.37,54.85,54.85,0,0,0,.8,9.88c.44,1.89,3.21,5.42,5,6.38a12.34,12.34,0,0,0,8.27,1.05,16.43,16.43,0,0,0,4.92-1.76c2.9-1.39,3.11-1.54,4.89-3.42,1-1.08,2.43-2.57,3.13-3.29a46.52,46.52,0,0,0,5-7.12c.09-.23.82-1.78,1.62-3.42,1.56-3.2,3.15-7.37,3.17-8.25s-.29-1.2-1.09-1c-.57.15-1,.59-2,2.11A35,35,0,0,1,69,110.73c-2.19,2.13-3.44,3.17-4.14,3.45a8.54,8.54,0,0,1-7.53-.11c-4.89-2-5.73-4.53-3.77-11.4,1-3.43,1.27-4.3,3.71-11.13C58.22,89,59,86.68,59,86.46c0-.93,2.39-6.92,5.29-13.39.61-1.36,1.41-3.19,1.8-4.11s.9-2.07,1.14-2.56c.47-1,2-4.29,3.38-7.15a20,20,0,0,0,.84-2,22.27,22.27,0,0,1,.91-2.08c.51-1.07,1.1-2.49,1.34-3.2l.43-1.28-.63-.68a2.09,2.09,0,0,0-3.07-.13Z"/><path class="cls-1" d="M107.31,62.61c-.72.54-.75,1-.36,4.57.15,1.37.37,3.52.49,4.83a16.82,16.82,0,0,0,.44,2.84.94.94,0,0,1,.08.71,6.66,6.66,0,0,0,.06,1.87c.11.91.22,2.86.25,4.34s.08,3.3.12,4c.18,3.25-.07,12.34-.35,13a8.53,8.53,0,0,0-.41,2,43.32,43.32,0,0,1-2,9.49,35.77,35.77,0,0,0-1.52,5.57c-.9,5.81-1.17,6.64-3.16,9.87-.89,1.44-1.09,1.95-1,2.45a1.15,1.15,0,0,1-.21,1,17.37,17.37,0,0,0-1.22,2.93,20.77,20.77,0,0,1-1.42,3.33,14.52,14.52,0,0,0-1.74,3.26,3.51,3.51,0,0,1-.57,1.12,10.26,10.26,0,0,0-.92,1.77,5.47,5.47,0,0,1-.94,1.55,2.29,2.29,0,0,0-.59.85A7.48,7.48,0,0,1,91,146.46a2.79,2.79,0,0,0-.54.93c0,.13-.2.35-.42.46a6.56,6.56,0,0,0-1.32,1.57c-.5.75-1.38,1.93-2,2.65a7.41,7.41,0,0,0-1.09,1.54c0,.12-.21.23-.43.23-.5,0-1.39,1-1.4,1.56a1.38,1.38,0,0,1-.58.83,1.37,1.37,0,0,0-.58.76c0,.39-3.34,2.55-3.93,2.54-.2,0-.38.08-.39.17,0,.47-1.62,1.82-2.3,1.94a2.83,2.83,0,0,0-1,.32c-.33.28-6.33,4.09-7.38,4.68-1.79,1-5.36,1.42-13.72,1.53a62.13,62.13,0,0,1-16.43-2.29c-3.61-1.12-5.21-.92-5.66.73-.24.87.07,1.57,1.26,2.83,2,2.15,8.78,5.82,12.13,6.6.81.19,2.62.47,4,.62s3.27.4,4.15.56c3.75.67,16.08-.06,17.46-1a5.36,5.36,0,0,1,2.7-.62c2.51-.19,3.66-.43,4.19-.89a1.56,1.56,0,0,1,.87-.35,1.08,1.08,0,0,0,.73-.32c.15-.18.37-.27.47-.2s.18,0,.15-.17.13-.27.4-.23a1.87,1.87,0,0,0,1.13-.5c.37-.31,1.15-.88,1.69-1.24A17.66,17.66,0,0,0,85,170.36a2.27,2.27,0,0,1,1.2-.6q.53,0,1-.69a6.49,6.49,0,0,1,1.69-1.48,32,32,0,0,0,6.59-5c.57-.7,1.62-1.9,2.34-2.69a30.81,30.81,0,0,0,4.77-6.72c.39-.86,1.21-2.73,1.82-4.13s1.46-3.21,1.88-4a96.79,96.79,0,0,0,4.27-10.11,24.29,24.29,0,0,1,1.15-2.9,3.15,3.15,0,0,0,.35-1.12,53.2,53.2,0,0,1,1.65-6,52.08,52.08,0,0,0,2.15-9.59,40.11,40.11,0,0,1,.69-4.36c.34-1.37.43-2.84.53-8.17a63,63,0,0,0-1.08-15.15c-.28-1.66-.71-4.41-1-6.07-1-6.79-2.54-12.6-4.2-16.08a26.76,26.76,0,0,0-1.54-2.92c-.45-.54-1.18-.52-1.93,0Z"/><path class="cls-1" d="M71.67,130.24a5.93,5.93,0,0,0-1.69.42,18.22,18.22,0,0,0-3.79,2.89,6,6,0,0,0-1.31,5.31,3.94,3.94,0,0,0,2.66,3.54,6.26,6.26,0,0,0,3.75.85c3.92.08,5.22-.75,6.13-3.91A10.54,10.54,0,0,1,77.9,138c.29-.57-.05-3.68-.52-4.63-.7-1.43-3.27-3.36-4.36-3.27l-1.35.14Z"/><path class="cls-1" d="M57.41,137.74c-2.5.45-3.6,1.22-4.61,3.19-.47.93-.57,1.46-.65,3.58s0,2.59.44,3.52a5.81,5.81,0,0,0,2.58,2.65,9.91,9.91,0,0,0,3.8-.4c1.1-.27,2.8-1.54,2.84-2.12a11.38,11.38,0,0,1,.63-1.4,4.19,4.19,0,0,0,.5-2.93,7.73,7.73,0,0,0-1.49-4.24c-1.13-1.74-2.14-2.2-4-1.86Z"/></g></g></svg>