<svg xmlns="http://www.w3.org/2000/svg" viewBox="0 0 888.54 282.72"><defs><style>.cls-1{fill:#fff;}</style></defs><title>logoengwhite</title><g id="Layer_2" data-name="Layer 2"><g id="Option_0201" data-name="Option 0201"><path class="cls-1" d="M40.39,40.39V80.78h80.78v80.78H80.78V121.17H40.39v80.77H0V0H121.17V40.39Zm80.78,40.39V40.39h40.39V80.78Zm0,121.17V161.55h40.39v40.39Z"/><path class="cls-1" d="M282.72,201.94V161.55H242.33v40.39H201.94V121.17h80.77V80.78H201.94V40.39H323.11V201.94Z"/><path class="cls-1" d="M363.5,161.55V40.39h40.39V161.55Zm0,121.17V242.33h80.77v40.39Zm80.77-40.39V201.94H403.88V161.55h80.78v80.77Zm40.39-80.78V40.39H525V161.55Z"/><path class="cls-1" d="M646.21,201.94V161.55H605.83v40.39H565.44V121.17h80.77V80.78H565.44V40.39H686.6V201.94Z"/><path class="cls-1" d="M807.77,80.78v40.39H767.38v80.77H727V40.39h40.39V80.78Zm0,0V40.39h40.39V80.78Zm40.39,121.17V80.78h40.39V201.94Z"/></g></g></svg>