<svg xmlns="http://www.w3.org/2000/svg" viewBox="0 0 1503.03 478.25"><defs><style>.cls-1{fill:#f9fafb;}</style></defs><title>logolowercase</title><g id="Layer_2" data-name="Layer 2"><g id="Option_0201" data-name="Option 0201"><path class="cls-1" d="M68.33,68.32v68.32H205V273.29H136.64V205H68.32V341.6H0V0H205V68.32ZM205,136.64V68.32h68.32v68.32Zm0,205V273.29h68.32v68.32Z"/><path class="cls-1" d="M478.24,341.61V273.29H409.92v68.32H341.59V205H478.23V136.64H341.59V68.32h205V341.61Z"/><path class="cls-1" d="M614.87,273.29v-205h68.32v205Zm0,205V409.93H751.52v68.32Zm136.64-68.32V341.61H683.19V273.29H819.84V409.92Zm68.32-136.64v-205h68.32v205Z"/><path class="cls-1" d="M1093.11,341.61V273.29h-68.32v68.32H956.47V205H1093.1V136.64H956.47V68.32h205V341.61Z"/><path class="cls-1" d="M1366.39,136.64V205h-68.32V341.61h-68.32V68.32h68.32v68.32Zm0,0V68.32h68.33v68.32Zm68.32,205v-205H1503v205Z"/></g></g></svg>