<svg xmlns="http://www.w3.org/2000/svg" viewBox="0 0 366 168.92"><defs><style>.cls-1{fill:#fff;}</style></defs><title>RayanLogo02</title><g id="Layer_2" data-name="Layer 2"><g id="Option_0201" data-name="Option 0201"><rect class="cls-1" x="281.54" y="56.31" width="28.15" height="28.15"/><polygon class="cls-1" points="225.23 84.46 197.08 84.46 168.92 84.46 168.92 56.31 168.92 28.15 168.92 0 140.77 0 140.77 28.15 140.77 56.31 140.77 84.46 140.77 112.61 168.92 112.61 197.08 112.61 225.23 112.61 253.38 112.61 281.54 112.61 281.54 84.46 253.38 84.46 225.23 84.46"/><rect class="cls-1" x="197.08" y="140.77" width="28.15" height="28.15"/><rect class="cls-1" x="140.77" y="140.77" width="28.15" height="28.15"/><polygon class="cls-1" points="84.46 56.31 84.46 84.46 84.46 112.61 112.61 112.61 112.61 84.46 112.61 56.31 84.46 56.31"/><polygon class="cls-1" points="28.15 112.61 28.15 140.77 56.31 140.77 84.46 140.77 84.46 112.61 56.31 112.61 28.15 112.61"/><rect class="cls-1" x="28.15" y="56.31" width="28.15" height="28.15"/><rect class="cls-1" y="84.46" width="28.15" height="28.15"/><polygon class="cls-1" points="337.85 56.31 337.85 84.46 337.85 112.61 337.85 140.77 366 140.77 366 112.61 366 84.46 366 56.31 337.85 56.31"/><rect class="cls-1" x="309.69" y="140.77" width="28.15" height="28.15"/></g></g></svg>